<svg width="34" height="34" viewBox="0 0 34 34" fill="none" xmlns="http://www.w3.org/2000/svg">
  <path d="M6.5 29.5c0-6 8-4.5 8-10.5s-8-4.5-8-10C6.5 5.2 10.5 3 15.5 3h4" stroke="#150B33" stroke-width="7.6" stroke-linecap="round" stroke-linejoin="round"/>
  <path d="M6.5 29.5c0-6 8-4.5 8-10.5s-8-4.5-8-10C6.5 5.2 10.5 3 15.5 3h4" stroke="#97F597" stroke-width="4.4" stroke-linecap="round" stroke-linejoin="round"/>
  <circle cx="22.6" cy="3" r="5.4" fill="#150B33"/>
  <circle cx="22.6" cy="3" r="2.9" fill="#97F597"/>
  <circle cx="23.6" cy="2.2" r="1.15" fill="#150B33"/>
  <path d="M28.2 3h3.1" stroke="#150B33" stroke-width="1.7" stroke-linecap="round"/>
  <path d="M31.3 3l1.6-1.3M31.3 3l1.6 1.3" stroke="#150B33" stroke-width="1.5" stroke-linecap="round"/>
</svg>
