<svg width="1926" height="502" viewBox="0 0 1926 502" fill="none" xmlns="http://www.w3.org/2000/svg">
<rect width="1925" height="501" transform="matrix(-1 0 0 1 1925.04 0.230469)" fill="#4921B9"/>
<g opacity="0.1">
<path d="M1227.46 331.083C1227.1 330.892 1226.73 330.719 1226.38 330.505C1225.5 329.961 1224.77 329.267 1224.35 328.292C1224.04 327.548 1224.05 326.808 1224.36 326.055C1225.03 324.447 1226.14 323.183 1227.44 322.064C1228.68 320.992 1230.06 320.139 1231.6 319.579C1233.24 318.988 1234.89 318.75 1236.58 319.36C1237.72 319.775 1238.66 320.504 1239.41 321.444C1241.52 324.064 1242.49 327.076 1242.39 330.422C1242.37 331.078 1242.22 331.762 1241.98 332.374C1241.62 333.294 1240.81 333.758 1239.89 334.02C1238.94 334.289 1237.99 334.272 1237.03 334.077C1236.94 334.06 1236.85 334.057 1236.76 334.047L1235.74 333.721C1234.98 333.256 1234.23 332.793 1233.47 332.323C1232.85 331.939 1232.19 331.675 1231.47 331.616C1230.48 331.535 1229.48 331.477 1228.49 331.408L1227.47 331.082L1227.46 331.083Z" fill="white"/>
<path d="M1223.58 314.137C1223.64 314.049 1223.7 313.961 1223.75 313.871C1224.64 312.368 1226.38 312.116 1227.69 313.319C1228.72 314.265 1229.15 315.496 1229.24 316.858C1229.29 317.666 1229.14 318.439 1228.75 319.156C1227.95 320.589 1226.38 320.945 1225.06 319.975C1223.94 319.156 1223.42 317.993 1223.28 316.654C1223.23 316.111 1223.3 315.556 1223.31 315.006C1223.4 314.717 1223.49 314.427 1223.58 314.137Z" fill="white"/>
<path d="M1230.05 309.9C1230.64 308.144 1231.35 306.848 1232.51 305.847C1233.26 305.207 1234.1 304.769 1235.11 304.813C1236.39 304.87 1237.22 305.604 1237.74 306.714C1238.31 307.919 1238.36 309.197 1238.17 310.489C1237.89 312.362 1237.17 314.039 1235.84 315.42C1235.26 316.022 1234.59 316.482 1233.77 316.706C1232.45 317.069 1231.14 316.512 1230.44 315.299C1229.77 314.147 1229.62 312.89 1229.75 311.598C1229.82 310.917 1229.99 310.246 1230.05 309.9L1230.05 309.9Z" fill="white"/>
<path d="M1239.24 312.843C1239.84 311.077 1240.55 309.773 1241.72 308.768C1242.46 308.136 1243.3 307.702 1244.3 307.744C1245.58 307.797 1246.41 308.526 1246.94 309.637C1247.5 310.841 1247.56 312.118 1247.37 313.411C1247.09 315.295 1246.37 316.978 1245.03 318.365C1244.45 318.965 1243.77 319.424 1242.96 319.642C1241.64 319.995 1240.34 319.444 1239.64 318.241C1238.96 317.081 1238.82 315.816 1238.95 314.514C1239.02 313.842 1239.18 313.18 1239.24 312.844L1239.24 312.843Z" fill="white"/>
<path d="M1249.54 323.125C1248.82 324.745 1247.6 326.054 1245.54 326.36C1244.39 326.532 1243.38 326.049 1242.91 325.168C1242.53 324.457 1242.54 323.709 1242.75 322.955C1243.22 321.229 1245.09 319.639 1246.86 319.429C1248 319.296 1248.98 319.742 1249.47 320.631C1249.88 321.368 1249.84 322.14 1249.54 323.125L1249.54 323.125Z" fill="white"/>
</g>
<g opacity="0.1">
<path d="M709.465 111.083C709.104 110.892 708.73 110.719 708.383 110.505C707.5 109.961 706.768 109.267 706.354 108.292C706.039 107.548 706.046 106.808 706.36 106.055C707.03 104.447 708.142 103.183 709.436 102.064C710.675 100.992 712.056 100.139 713.602 99.579C715.235 98.9883 716.893 98.7497 718.578 99.3602C719.723 99.7753 720.658 100.504 721.412 101.444C723.515 104.064 724.489 107.076 724.387 110.422C724.368 111.078 724.222 111.762 723.983 112.374C723.622 113.294 722.81 113.758 721.89 114.02C720.943 114.289 719.986 114.272 719.027 114.077C718.941 114.06 718.852 114.057 718.764 114.047L717.742 113.721C716.985 113.256 716.225 112.793 715.47 112.323C714.854 111.939 714.194 111.675 713.468 111.616C712.476 111.535 711.48 111.477 710.487 111.408L709.465 111.082L709.465 111.083Z" fill="white"/>
<path d="M705.583 94.1373C705.638 94.0486 705.697 93.9607 705.75 93.8705C706.638 92.3676 708.376 92.1158 709.689 93.3191C710.722 94.2654 711.148 95.4957 711.237 96.8583C711.29 97.6656 711.145 98.4393 710.746 99.1561C709.948 100.589 708.381 100.945 707.056 99.9752C705.936 99.1564 705.42 97.9926 705.284 96.654C705.23 96.1106 705.295 95.556 705.306 95.0058C705.398 94.7165 705.49 94.4266 705.583 94.1373Z" fill="white"/>
<path d="M712.047 89.9C712.641 88.1445 713.346 86.8476 714.513 85.8469C715.258 85.2073 716.102 84.7689 717.112 84.8134C718.393 84.8704 719.22 85.6038 719.742 86.7144C720.308 87.9195 720.363 89.1971 720.169 90.4891C719.888 92.3625 719.17 94.0391 717.843 95.4204C717.265 96.0223 716.589 96.4823 715.775 96.7057C714.451 97.069 713.142 96.5122 712.436 95.2992C711.765 94.1468 711.623 92.89 711.754 91.5976C711.823 90.9172 711.985 90.2463 712.046 89.8998L712.047 89.9Z" fill="white"/>
<path d="M721.242 92.8431C721.836 91.0772 722.546 89.7729 723.723 88.7679C724.462 88.1363 725.3 87.7025 726.299 87.7441C727.579 87.7967 728.411 88.5259 728.935 89.6366C729.503 90.8409 729.56 92.1177 729.368 93.411C729.087 95.2945 728.366 96.9782 727.03 98.3645C726.451 98.9653 725.773 99.424 724.957 99.642C723.635 99.9949 722.343 99.4438 721.64 98.241C720.962 97.0814 720.82 95.8161 720.954 94.5141C721.023 93.8422 721.182 93.18 721.242 92.8438L721.242 92.8431Z" fill="white"/>
<path d="M731.543 103.125C730.824 104.745 729.596 106.054 727.543 106.36C726.395 106.532 725.384 106.049 724.91 105.168C724.527 104.457 724.539 103.709 724.747 102.955C725.225 101.229 727.086 99.6393 728.865 99.4294C729.998 99.2956 730.984 99.7424 731.471 100.631C731.876 101.368 731.836 102.14 731.544 103.125L731.543 103.125Z" fill="white"/>
</g>
<g opacity="0.1">
<path d="M1358.36 251.879C1358.09 251.735 1357.81 251.605 1357.55 251.445C1356.88 251.037 1356.34 250.516 1356.02 249.784C1355.79 249.226 1355.79 248.671 1356.03 248.106C1356.53 246.899 1357.37 245.951 1358.34 245.111C1359.27 244.307 1360.3 243.667 1361.46 243.247C1362.69 242.804 1363.93 242.625 1365.2 243.083C1366.06 243.394 1366.76 243.941 1367.32 244.646C1368.9 246.612 1369.63 248.871 1369.55 251.382C1369.54 251.875 1369.43 252.388 1369.25 252.847C1368.98 253.538 1368.37 253.885 1367.68 254.082C1366.97 254.284 1366.25 254.271 1365.53 254.125C1365.47 254.112 1365.4 254.109 1365.34 254.102L1364.57 253.858C1364 253.508 1363.43 253.161 1362.86 252.808C1362.4 252.52 1361.91 252.323 1361.36 252.278C1360.62 252.217 1359.87 252.174 1359.13 252.122L1358.36 251.878L1358.36 251.879Z" fill="white"/>
<path d="M1355.45 239.163C1355.49 239.097 1355.53 239.031 1355.57 238.963C1356.24 237.835 1357.54 237.647 1358.53 238.549C1359.3 239.259 1359.62 240.182 1359.69 241.205C1359.73 241.811 1359.62 242.391 1359.32 242.929C1358.72 244.004 1357.54 244.271 1356.55 243.543C1355.71 242.929 1355.32 242.056 1355.22 241.052C1355.18 240.644 1355.23 240.228 1355.24 239.815C1355.31 239.598 1355.38 239.38 1355.45 239.163Z" fill="white"/>
<path d="M1360.29 235.985C1360.74 234.668 1361.27 233.695 1362.14 232.944C1362.7 232.465 1363.34 232.136 1364.09 232.169C1365.05 232.212 1365.68 232.762 1366.07 233.595C1366.49 234.5 1366.53 235.458 1366.39 236.428C1366.18 237.833 1365.64 239.091 1364.64 240.128C1364.21 240.579 1363.7 240.924 1363.09 241.092C1362.1 241.364 1361.12 240.947 1360.59 240.037C1360.08 239.172 1359.98 238.229 1360.07 237.259C1360.13 236.749 1360.25 236.245 1360.29 235.985L1360.29 235.985Z" fill="white"/>
<path d="M1367.19 238.193C1367.64 236.868 1368.17 235.89 1369.05 235.136C1369.61 234.662 1370.24 234.336 1370.99 234.367C1371.95 234.407 1372.57 234.954 1372.96 235.787C1373.39 236.691 1373.43 237.649 1373.29 238.619C1373.08 240.033 1372.54 241.296 1371.54 242.336C1371.1 242.787 1370.59 243.131 1369.98 243.295C1368.99 243.559 1368.02 243.146 1367.49 242.243C1366.98 241.373 1366.88 240.424 1366.98 239.447C1367.03 238.943 1367.15 238.446 1367.19 238.194L1367.19 238.193Z" fill="white"/>
<path d="M1374.92 245.909C1374.38 247.125 1373.46 248.107 1371.92 248.337C1371.06 248.465 1370.3 248.103 1369.95 247.442C1369.66 246.909 1369.67 246.348 1369.82 245.782C1370.18 244.487 1371.58 243.294 1372.91 243.136C1373.76 243.036 1374.5 243.371 1374.87 244.038C1375.17 244.591 1375.14 245.17 1374.92 245.909L1374.92 245.909Z" fill="white"/>
</g>
<g opacity="0.1">
<path d="M202.358 367.879C202.087 367.735 201.807 367.605 201.547 367.445C200.884 367.037 200.335 366.516 200.025 365.784C199.788 365.226 199.793 364.671 200.029 364.106C200.531 362.899 201.366 361.951 202.337 361.111C203.267 360.307 204.303 359.667 205.463 359.247C206.688 358.804 207.932 358.625 209.196 359.083C210.055 359.394 210.757 359.941 211.323 360.646C212.9 362.612 213.631 364.871 213.555 367.382C213.54 367.875 213.431 368.388 213.251 368.847C212.981 369.538 212.371 369.885 211.681 370.082C210.971 370.284 210.253 370.271 209.533 370.125C209.469 370.112 209.402 370.109 209.336 370.102L208.569 369.858C208.001 369.508 207.431 369.161 206.864 368.808C206.402 368.52 205.907 368.323 205.362 368.278C204.617 368.217 203.871 368.174 203.125 368.122L202.359 367.878L202.358 367.879Z" fill="white"/>
<path d="M199.445 355.163C199.487 355.097 199.531 355.031 199.571 354.963C200.238 353.835 201.542 353.647 202.527 354.549C203.301 355.259 203.621 356.182 203.688 357.205C203.728 357.811 203.619 358.391 203.319 358.929C202.721 360.004 201.545 360.271 200.551 359.543C199.711 358.929 199.323 358.056 199.222 357.052C199.181 356.644 199.23 356.228 199.238 355.815C199.307 355.598 199.376 355.38 199.445 355.163Z" fill="white"/>
<path d="M204.293 351.985C204.739 350.668 205.268 349.695 206.144 348.944C206.703 348.465 207.336 348.136 208.094 348.169C209.055 348.212 209.675 348.762 210.067 349.595C210.492 350.5 210.533 351.458 210.387 352.428C210.176 353.833 209.638 355.091 208.642 356.128C208.209 356.579 207.701 356.924 207.09 357.092C206.097 357.364 205.115 356.947 204.585 356.037C204.082 355.172 203.975 354.229 204.073 353.259C204.125 352.749 204.247 352.245 204.293 351.985L204.293 351.985Z" fill="white"/>
<path d="M211.192 354.193C211.638 352.868 212.171 351.89 213.054 351.136C213.609 350.662 214.237 350.336 214.987 350.367C215.947 350.407 216.571 350.954 216.965 351.787C217.391 352.691 217.434 353.649 217.29 354.619C217.079 356.033 216.538 357.296 215.535 358.336C215.101 358.787 214.592 359.131 213.98 359.295C212.988 359.559 212.018 359.146 211.491 358.243C210.983 357.373 210.876 356.424 210.976 355.447C211.028 354.943 211.147 354.446 211.192 354.194L211.192 354.193Z" fill="white"/>
<path d="M218.924 361.909C218.384 363.125 217.463 364.107 215.922 364.337C215.061 364.465 214.303 364.103 213.947 363.442C213.66 362.909 213.668 362.348 213.825 361.782C214.183 360.487 215.58 359.294 216.914 359.136C217.764 359.036 218.504 359.371 218.87 360.038C219.173 360.591 219.143 361.17 218.924 361.909L218.924 361.909Z" fill="white"/>
</g>
</svg>
